<svg width="57" height="57" viewBox="0 0 57 57" fill="none" xmlns="http://www.w3.org/2000/svg">
<path d="M47.5 9.5H9.5C6.8875 9.5 4.77375 11.6375 4.77375 14.25L4.75 42.75C4.75 45.3625 6.8875 47.5 9.5 47.5H47.5C50.1125 47.5 52.25 45.3625 52.25 42.75V14.25C52.25 11.6375 50.1125 9.5 47.5 9.5ZM46.55 19.5938L29.7587 30.0912C28.9987 30.5662 28.0013 30.5662 27.2413 30.0912L10.45 19.5938C10.2119 19.4601 10.0033 19.2794 9.83699 19.0628C9.67066 18.8462 9.55002 18.5981 9.48237 18.3335C9.41471 18.0689 9.40144 17.7933 9.44337 17.5235C9.4853 17.2536 9.58155 16.9951 9.72629 16.7635C9.87104 16.5319 10.0613 16.3321 10.2855 16.1761C10.5097 16.0202 10.7632 15.9113 11.0307 15.8562C11.2982 15.8011 11.574 15.8008 11.8416 15.8554C12.1092 15.91 12.363 16.0183 12.5875 16.1737L28.5 26.125L44.4125 16.1737C44.637 16.0183 44.8908 15.91 45.1584 15.8554C45.426 15.8008 45.7018 15.8011 45.9693 15.8562C46.2368 15.9113 46.4903 16.0202 46.7145 16.1761C46.9387 16.3321 47.129 16.5319 47.2737 16.7635C47.4185 16.9951 47.5147 17.2536 47.5566 17.5235C47.5986 17.7933 47.5853 18.0689 47.5176 18.3335C47.45 18.5981 47.3293 18.8462 47.163 19.0628C46.9967 19.2794 46.7881 19.4601 46.55 19.5938Z" fill="#BAD4FA"/>
</svg>
