<svg width="57" height="57" viewBox="0 0 57 57" fill="none" xmlns="http://www.w3.org/2000/svg">
<path d="M28.502 4.75C41.6191 4.75 52.252 15.3829 52.252 28.5C52.252 41.6171 41.6191 52.25 28.502 52.25C24.3048 52.2568 20.1815 51.146 16.5557 49.0319L4.76149 52.25L7.97249 40.451C5.85658 36.8241 4.74497 32.699 4.75199 28.5C4.75199 15.3829 15.3849 4.75 28.502 4.75ZM20.408 17.3375L19.933 17.3565C19.6255 17.3752 19.3249 17.456 19.0495 17.594C18.7918 17.7399 18.5567 17.9223 18.3512 18.1355C18.0662 18.4039 17.9047 18.6366 17.7314 18.8622C16.8529 20.0044 16.3799 21.4066 16.3871 22.8475C16.3919 24.0112 16.6959 25.1441 17.1709 26.2034C18.1422 28.3456 19.7406 30.6137 21.8496 32.7156C22.3579 33.2215 22.8566 33.7297 23.3934 34.2024C26.0139 36.5096 29.1367 38.1735 32.5134 39.0616L33.8624 39.2682C34.3017 39.292 34.7411 39.2588 35.1829 39.2374C35.8746 39.2017 36.5499 39.0144 37.1612 38.6888C37.4723 38.5285 37.7758 38.3542 38.0709 38.1662C38.0709 38.1662 38.173 38.0998 38.3677 37.9525C38.6884 37.715 38.8855 37.5464 39.1515 37.2685C39.3486 37.0643 39.5196 36.8244 39.6502 36.5513C39.8355 36.1641 40.0207 35.4255 40.0967 34.8104C40.1537 34.3401 40.1371 34.0836 40.13 33.9245C40.1205 33.6704 39.9091 33.4067 39.6787 33.2951L38.2965 32.6753C38.2965 32.6753 36.2302 31.7751 34.9667 31.2004C34.8345 31.1426 34.6929 31.1096 34.5487 31.103C34.3862 31.0863 34.2221 31.1046 34.0672 31.1566C33.9124 31.2086 33.7704 31.2932 33.651 31.4046C33.6391 31.3999 33.48 31.5353 31.7629 33.6158C31.6643 33.7482 31.5285 33.8483 31.3729 33.9033C31.2172 33.9582 31.0487 33.9656 30.8889 33.9245C30.7341 33.883 30.5826 33.8306 30.4352 33.7678C30.1407 33.6443 30.0386 33.5967 29.8367 33.5112C28.4736 32.9164 27.2116 32.1127 26.0961 31.1291C25.7969 30.8679 25.519 30.5829 25.234 30.3074C24.2996 29.4125 23.4853 28.4003 22.8115 27.2959L22.6714 27.0702C22.5707 26.9186 22.4893 26.7551 22.4291 26.5834C22.3389 26.2342 22.574 25.954 22.574 25.954C22.574 25.954 23.1511 25.3222 23.4195 24.9802C23.6807 24.6477 23.9016 24.3248 24.0441 24.0944C24.3244 23.6431 24.4122 23.18 24.265 22.8214C23.6 21.1969 22.9112 19.5795 22.2035 17.974C22.0634 17.6557 21.6477 17.4277 21.2701 17.3826C21.1419 17.3684 21.0136 17.3541 20.8854 17.3446C20.5664 17.3288 20.2468 17.332 19.9282 17.3541L20.4056 17.3351L20.408 17.3375Z" fill="#BAD4FA"/>
</svg>
